<?xml version="1.0"?>
<svg xmlns="http://www.w3.org/2000/svg" height="512px" viewBox="0 0 60 60" width="512px"><g><g id="Page-1" fill="none" fill-rule="evenodd"><g id="002---Opening-Present" fill="rgb(0,0,0)" fill-rule="nonzero" transform="translate(-1)"><path id="Shape" d="m4.29 32.91-2.69 2.963c-.24420495.2691865-.32313034.6496773-.20614158.9937864.11698877.344109.4114699.5976507.76914158.6622136 1.20689809.1936363 2.4276849.2876202 3.65.281 2.15930429.0241117 4.3079066-.3066244 6.36-.979-.1764184 1.010278.1754698 2.0406729.933 2.732l3.7 3.359c.3927151.3568659.9111521.5430379 1.4411784.5175306.5300263-.0255072 1.02819-.2606027 1.3848216-.6535306l.364-.4v14.614c0 1.6568542 1.3431458 3 3 3h30.004c1.6568542 0 3-1.3431458 3-3v-25c0-1.1045695-.8954305-2-2-2h-22.761l11.245-12.392c.742485-.8176798.6815982-2.0824251-.136-2.825l-3.7-3.36c-.7647468-.689563-1.8297136-.9387223-2.821-.66.6775298-3.32110558.5872318-6.75311697-.264-10.034-.0994568-.34856014-.3797443-.61601202-.7325806-.69903232-.3528363-.08302031-.7229739.03139036-.9674194.29903232l-2.691 2.961-2.963-2.69c-.2773863-.2515953-.672099-.32711917-1.0227716-.19569593-.3506726.13142325-.5985244.44776407-.6422284.81969593l-.584 4.976c-1.8633744-.19297165-3.7464881.01152938-5.525.6-.5702203.18594842-1.074255.533319-1.451 1-2.3160309 2.9421286-2.7854759 6.9349229-1.215 10.334-3.5354969-1.235161-7.4650664-.3811588-10.169 2.21-.42625074.4207674-.7214828.9560058-.85 1.541-.41631233 1.8266359-.43881143 3.7209917-.066 5.557l-4.9 1.063c-.36615589.079368-.65722983.3567512-.75413255.7186618s.01662417.747627.29413255.9993382zm13.864 8.531-3.7-3.36c-.1966047-.1781783-.3143382-.427187-.3272795-.6922029s.0799705-.5243109.2582795-.7207971l2.684-2.956v-.005l3.362-3.707 4.443 4.033zm2.073-15.674c-.5893722-.53464-.9421912-1.2815308-.9808247-2.0763308-.0386335-.7948001.2400838-1.5723884.7748247-2.1616692l1.344-1.481c.53464-.5893722 1.2815308-.9421912 2.0763308-.9808247.7948001-.0386335 1.5723884.2400838 2.1616692.7748247l.74.672-5.377 5.924zm-2.966-1.906c.0171855.205621.0469074.4100011.089.612-1.5008438.24587-3.0402173.082467-4.456-.473 1.4058063-.499264 2.9322887-.5478514 4.367-.139zm6.778-6.761c-.2078535-.0229109-.4168998-.033263-.626-.031-.5385946-1.388-.6332806-2.9089152-.271-4.353.6922937 1.3525062 1.0024312 2.8682732.897 4.384zm2.18 15.451-4.443-4.032 6.72-7.405 4.443 4.032zm27.781 24.449c0 .5522847-.4477153 1-1 1h-10v-26h11zm-13-25v26h-6v-26zm-8 0v26h-10c-.5522847 0-1-.4477153-1-1v-16.82l7.424-8.18zm2.888-19.027c.3698142-.4099464 1.0018823-.4426241 1.412-.073l3.7 3.363-6.72 7.405-4.44-4.031 3.36-3.7v-.005zm-7.588-9.585 2.264 2.055c.1963576.17843297.4555761.27151896.7205892.25876532s.514095-.13030136.6924108-.32676532l2.037-2.246c.425 2.693.726 7.719-2 11.094-.0172487-1.5179519-.2347943-3.0269859-.647-4.488-.3375238-1.1975933-1.1886765-2.18389035-2.324-2.693-.3658007-.16380441-.741149-.30539486-1.124-.424zm-7.751 5.658c.1367227-.16309959.317637-.28324607.521-.346 2.3249039-.81680113 4.867716-.75885644 7.153.163.5962734.26477409 1.0442732.78054167 1.223 1.408.6739195 2.1487921.7362468 4.4427845.18 6.625l-1.939 2.136-.74-.672c-.292127-.2590621-.6136616-.4829281-.958-.667.2659469-2.5483575-.3865402-5.1079506-1.84-7.218-.2431732-.382326-.6747282-.60250716-1.127-.575-.4962117.02620144-.942442.3104077-1.176.749-1.0966479 2.136537-1.2383224 4.6372744-.39 6.884-.4963495.2416327-.9488978.5643986-1.339.955-.99-1.818-2.491-5.769.432-9.442zm-11.849 13.287c.04196411-.2083448.14338501-.400072.292-.552 3.374-3.265 7.452-2.153 9.362-1.344-.3502424.427895-.6266986.9111863-.818 1.43-2.3215164-.6340307-4.8031011-.2515773-6.826 1.052-.4046272.2787435-.6400219.7438835-.625 1.235.0194694.4470535.2708075.8515448.663 1.067 1.6264919.8763732 3.4396711 1.3493019 5.287 1.379.7034983.0002422 1.404718-.0799452 2.09-.239.2164143.3251325.4705114.6235371.757.889l.74.672-1.938 2.136c-2.1177317.7662282-4.4072795.9262299-6.611.462-.641903-.1170962-1.19870978-.5130884-1.52-1.081-1.13939689-2.1860028-1.44266904-4.7124412-.853-7.106zm-1.41 7.024c.15471056.3698896.33204598.7299038.531 1.078.61555995 1.0792807 1.67739896 1.8306234 2.9 2.052 1.0302909.1835551 2.0744939.2779048 3.121.282.456 0 .932-.029 1.413-.076-3.088 3.033-8.123 3.225-10.85 3.063l2.035-2.242c.17911573-.19602.27291722-.4552291.26072397-.7204792s-.12938-.5147603-.32572397-.6935208l-2.264-2.053z" data-original="#000000" class="active-path" data-old_color="#000000" fill="#CC3333"/><path id="Shape" d="m51 38c.5522847 0 1-.4477153 1-1v-2c0-.5522847-.4477153-1-1-1s-1 .4477153-1 1v2c0 .5522847.4477153 1 1 1z" data-original="#000000" class="active-path" data-old_color="#000000" fill="#CC3333"/><path id="Shape" d="m51 56c.5522847 0 1-.4477153 1-1v-14c0-.5522847-.4477153-1-1-1s-1 .4477153-1 1v14c0 .5522847.4477153 1 1 1z" data-original="#000000" class="active-path" data-old_color="#000000" fill="#CC3333"/><path id="Shape" d="m25 56c.5522847 0 1-.4477153 1-1v-14c0-.5522847-.4477153-1-1-1s-1 .4477153-1 1v14c0 .5522847.4477153 1 1 1z" data-original="#000000" class="active-path" data-old_color="#000000" fill="#CC3333"/><path id="Shape" d="m42.707 23.293c-.3923789-.3789722-1.0160848-.3735524-1.4018186.0121814s-.3911536 1.0094397-.0121814 1.4018186l.293.293-.293.293c-.2599566.2510745-.3642126.6228779-.2726972.9725073.0915155.3496295.3645604.6226744.7141899.7141899.3496294.0915154.7214328-.0127406.9725073-.2726972l.293-.293.293.293c.3923789.3789722 1.0160848.3735524 1.4018186-.0121814s.3911536-1.0094397.0121814-1.4018186l-.293-.293.293-.293c.3789722-.3923789.3735524-1.0160848-.0121814-1.4018186s-1.0094397-.3911536-1.4018186-.0121814l-.293.293z" data-original="#000000" class="active-path" data-old_color="#000000" fill="#CC3333"/><path id="Shape" d="m54.293 22.293-.293.293-.293-.293c-.3923789-.3789722-1.0160848-.3735524-1.4018186.0121814s-.3911536 1.0094397-.0121814 1.4018186l.293.293-.293.293c-.2599566.2510745-.3642126.6228779-.2726972.9725073.0915155.3496295.3645604.6226744.7141899.7141899.3496294.0915154.7214328-.0127406.9725073-.2726972l.293-.293.293.293c.3923789.3789722 1.0160848.3735524 1.4018186-.0121814s.3911536-1.0094397.0121814-1.4018186l-.293-.293.293-.293c.3789722-.3923789.3735524-1.0160848-.0121814-1.4018186s-1.0094397-.3911536-1.4018186-.0121814z" data-original="#000000" class="active-path" data-old_color="#000000" fill="#CC3333"/><path id="Shape" d="m60.707 14.293c-.3904999-.3903819-1.0235001-.3903819-1.414 0l-.293.293-.293-.293c-.3923789-.3789722-1.0160848-.3735524-1.4018186.0121814s-.3911536 1.0094397-.0121814 1.4018186l.293.293-.293.293c-.2599566.2510745-.3642126.6228779-.2726972.9725073.0915155.3496295.3645604.6226744.7141899.7141899.3496294.0915154.7214328-.0127406.9725073-.2726972l.293-.293.293.293c.3923789.3789722 1.0160848.3735524 1.4018186-.0121814s.3911536-1.0094397.0121814-1.4018186l-.293-.293.293-.293c.3903819-.3904999.3903819-1.0235001 0-1.414z" data-original="#000000" class="active-path" data-old_color="#000000" fill="#CC3333"/><path id="Shape" d="m47.293 19.707c.3904999.3903819 1.0235001.3903819 1.414 0l.293-.293.293.293c.3923789.3789722 1.0160848.3735524 1.4018186-.0121814s.3911536-1.0094397.0121814-1.4018186l-.293-.293.293-.293c.3789722-.3923789.3735524-1.0160848-.0121814-1.4018186s-1.0094397-.3911536-1.4018186-.0121814l-.293.293-.293-.293c-.3923789-.3789722-1.0160848-.3735524-1.4018186.0121814s-.3911536 1.0094397-.0121814 1.4018186l.293.293-.293.293c-.3903819.3904999-.3903819 1.0235001 0 1.414z" data-original="#000000" class="active-path" data-old_color="#000000" fill="#CC3333"/><path id="Shape" d="m51.293 11.707c.3904999.3903819 1.0235001.3903819 1.414 0l.293-.293.293.293c.3923789.3789722 1.0160848.3735524 1.4018186-.0121814s.3911536-1.0094397.0121814-1.4018186l-.293-.293.293-.293c.3789722-.39237889.3735524-1.01608478-.0121814-1.40181858-.3857338-.38573379-1.0094397-.39115363-1.4018186-.01218142l-.293.293-.293-.293c-.3923789-.37897221-1.0160848-.37355237-1.4018186.01218142-.3857338.3857338-.3911536 1.00943969-.0121814 1.40181858l.293.293-.293.293c-.3903819.3904999-.3903819 1.0235001 0 1.414z" data-original="#000000" class="active-path" data-old_color="#000000" fill="#CC3333"/></g></g></g> </svg>
