<svg width="239" height="119" viewBox="0 0 239 119" fill="none" xmlns="http://www.w3.org/2000/svg">
<path fill-rule="evenodd" clip-rule="evenodd" d="M5.11182 24.2214C6.58932 27.1883 9.61463 30.1736 13.6709 32.9255L7.08498 36.6201C4.67791 32.5842 3.86655 28.2554 5.11182 24.2214Z" fill="#474B4B"/>
<path fill-rule="evenodd" clip-rule="evenodd" d="M32.731 24.2214C31.2535 27.1883 28.2281 30.1736 24.1719 32.9255L30.7578 36.6201C33.1649 32.5842 33.9762 28.2554 32.731 24.2214Z" fill="#474B4B"/>
<path d="M20.32 96.72C16.5867 96.72 13.4667 95.92 10.96 94.32C8.50667 92.72 6.64 90.5067 5.36 87.68C4.08 84.8533 3.33333 81.5733 3.12 77.84L11.12 75.68C11.28 77.9733 11.6267 80.1867 12.16 82.32C12.7467 84.4533 13.68 86.2133 14.96 87.6C16.24 88.9333 18.0267 89.6 20.32 89.6C22.6667 89.6 24.4267 88.96 25.6 87.68C26.8267 86.3467 27.44 84.4533 27.44 82C27.44 79.0667 26.7733 76.72 25.44 74.96C24.1067 73.1467 22.4267 71.3333 20.4 69.52L9.52 59.92C7.38667 58.0533 5.81333 56.0267 4.8 53.84C3.78667 51.6 3.28 48.8533 3.28 45.6C3.28 40.8533 4.64 37.1733 7.36 34.56C10.08 31.9467 13.7867 30.64 18.48 30.64C21.04 30.64 23.28 30.9867 25.2 31.68C27.1733 32.32 28.8 33.3333 30.08 34.72C31.4133 36.1067 32.4533 37.8667 33.2 40C34 42.08 34.5333 44.5333 34.8 47.36L27.12 49.44C26.96 47.3067 26.64 45.36 26.16 43.6C25.68 41.7867 24.8267 40.3467 23.6 39.28C22.4267 38.16 20.72 37.6 18.48 37.6C16.24 37.6 14.48 38.2133 13.2 39.44C11.9733 40.6133 11.36 42.3733 11.36 44.72C11.36 46.6933 11.68 48.32 12.32 49.6C13.0133 50.88 14.1067 52.1867 15.6 53.52L26.56 63.12C29.0133 65.2533 31.1733 67.8133 33.04 70.8C34.9067 73.7333 35.84 77.2267 35.84 81.28C35.84 84.48 35.1733 87.2533 33.84 89.6C32.5067 91.8933 30.6667 93.6533 28.32 94.88C26.0267 96.1067 23.36 96.72 20.32 96.72Z" fill="white"/>
<path d="M43.04 96V31.2H68.16V37.92H52.08V59.36H65.12V65.76H52.08V89.52H68.32V96H43.04Z" fill="white"/>
<path d="M72.04 96L85.56 62.08L72.28 31.2H80.68L90.52 54.08L99.48 31.2H107.88L94.28 62.8L108.52 96H100.12L89.56 71.6L80.44 96H72.04Z" fill="white"/>
<path d="M201.04 96V31.2H215.12C219.92 31.2 223.707 31.9467 226.48 33.44C229.307 34.88 231.307 37.0667 232.48 40C233.707 42.9333 234.32 46.5867 234.32 50.96V74.8C234.32 79.3867 233.707 83.2533 232.48 86.4C231.307 89.5467 229.36 91.9467 226.64 93.6C223.973 95.2 220.373 96 215.84 96H201.04ZM210.08 89.52H215.2C218.507 89.52 220.853 88.88 222.24 87.6C223.627 86.32 224.453 84.4533 224.72 82C225.04 79.5467 225.2 76.5867 225.2 73.12V52.08C225.2 48.72 224.987 46 224.56 43.92C224.133 41.84 223.2 40.32 221.76 39.36C220.32 38.4 218.053 37.92 214.96 37.92H210.08V89.52Z" fill="#474B4B"/>
<path d="M130.48 96.8C126.427 96.8 123.173 95.9467 120.72 94.24C118.32 92.48 116.56 89.9467 115.44 86.64C114.373 83.3333 113.84 79.36 113.84 74.72V53.04C113.84 48.2933 114.32 44.2667 115.28 40.96C116.293 37.6 118.053 35.04 120.56 33.28C123.12 31.52 126.667 30.64 131.2 30.64C135.253 30.64 138.507 31.3333 140.96 32.72C143.467 34.0533 145.28 36.1333 146.4 38.96C147.52 41.7333 148.08 45.2533 148.08 49.52V51.92H139.6V49.92C139.6 47.0933 139.413 44.8 139.04 43.04C138.667 41.2267 137.893 39.8933 136.72 39.04C135.6 38.1333 133.813 37.68 131.36 37.68C128.693 37.68 126.747 38.2933 125.52 39.52C124.347 40.7467 123.6 42.4267 123.28 44.56C123.013 46.64 122.88 49.0133 122.88 51.68V75.68C122.88 78.7733 123.093 81.36 123.52 83.44C124 85.52 124.88 87.0667 126.16 88.08C127.44 89.0933 129.253 89.6 131.6 89.6C133.947 89.6 135.76 89.04 137.04 87.92C138.32 86.8 139.2 85.1467 139.68 82.96C140.16 80.7733 140.4 78.0533 140.4 74.8V70.32H132.16V63.92H148.56V96H142.88L142 88.56C141.147 90.96 139.813 92.9333 138 94.48C136.187 96.0267 133.68 96.8 130.48 96.8Z" fill="#474B4B"/>
<path d="M174.6 96.72C170.227 96.72 166.733 95.8667 164.12 94.16C161.507 92.4533 159.64 90.0267 158.52 86.88C157.4 83.68 156.84 79.9467 156.84 75.68V51.12C156.84 46.8533 157.4 43.2 158.52 40.16C159.693 37.0667 161.56 34.72 164.12 33.12C166.733 31.4667 170.227 30.64 174.6 30.64C178.973 30.64 182.44 31.4667 185 33.12C187.56 34.7733 189.4 37.12 190.52 40.16C191.693 43.2 192.28 46.8533 192.28 51.12V75.76C192.28 79.9733 191.693 83.6533 190.52 86.8C189.4 89.9467 187.56 92.4 185 94.16C182.44 95.8667 178.973 96.72 174.6 96.72ZM174.6 89.6C177 89.6 178.813 89.12 180.04 88.16C181.267 87.1467 182.093 85.76 182.52 84C182.947 82.1867 183.16 80.08 183.16 77.68V49.28C183.16 46.88 182.947 44.8267 182.52 43.12C182.093 41.36 181.267 40.0267 180.04 39.12C178.813 38.16 177 37.68 174.6 37.68C172.2 37.68 170.36 38.16 169.08 39.12C167.853 40.0267 167.027 41.36 166.6 43.12C166.173 44.8267 165.96 46.88 165.96 49.28V77.68C165.96 80.08 166.173 82.1867 166.6 84C167.027 85.76 167.853 87.1467 169.08 88.16C170.36 89.12 172.2 89.6 174.6 89.6Z" fill="white"/>
<path fill-rule="evenodd" clip-rule="evenodd" d="M178.179 100.714V95.9263H173.542V100.714H170.065C169.727 100.714 169.449 100.823 169.232 101.041C169.014 101.258 168.906 101.536 168.906 101.875V104.196C168.906 104.535 169.014 104.813 169.232 105.031C169.449 105.248 169.727 105.357 170.065 105.357H173.542V108.839C173.542 109.178 173.651 109.456 173.868 109.674C174.086 109.891 174.364 110 174.702 110H177.02C177.358 110 177.636 109.891 177.853 109.674C178.071 109.456 178.179 109.178 178.179 108.839V105.357H181.657C181.995 105.357 182.273 105.248 182.49 105.031C182.707 104.813 182.816 104.535 182.816 104.196V101.875C182.816 101.536 182.707 101.258 182.49 101.041C182.273 100.823 181.995 100.714 181.657 100.714H178.179Z" fill="white"/>
<path fill-rule="evenodd" clip-rule="evenodd" d="M182.416 17.3265C182.198 17.5441 182.09 17.8222 182.09 18.1607V20.4821C182.09 20.8207 182.198 21.0988 182.416 21.3164C182.633 21.534 182.911 21.6429 183.249 21.6429H188.103L178.866 30.856L182.416 34.481C182.332 34.3725 182.248 34.2645 182.162 34.1568L191.363 24.9074V29.7679C191.363 30.1064 191.472 30.3845 191.689 30.6021C191.907 30.8198 192.184 30.9286 192.522 30.9286H194.841C195.179 30.9286 195.457 30.8198 195.674 30.6021C195.891 30.3845 196 30.1064 196 29.7679V19.3214C196 18.6927 195.771 18.1486 195.312 17.6892C194.853 17.2297 194.31 17 193.682 17H183.249C182.911 17 182.633 17.1088 182.416 17.3265Z" fill="white"/>
</svg>
